<svg id="Calque_1" data-name="Calque 1" xmlns="http://www.w3.org/2000/svg" viewBox="0 0 226.32 93.85"><defs><style>.cls-1{fill:#c237fe;}</style></defs><path class="cls-1" d="M111.66,38.38a6.61,6.61,0,0,0-3.52-4.66,6.3,6.3,0,0,0-5.51-.45l-.86.42,1-.12a9.63,9.63,0,0,1,5.93,2.35,3.42,3.42,0,0,1,1,3.36,3.2,3.2,0,0,1-2.79,1.89c-1-.09-1.61-.16-2.72-1.85s1.54-3.51,1.57-3.53l.45-.33-.55,0a3.6,3.6,0,0,0-3.15,1.73,3.45,3.45,0,0,0,.37,3.38,5.52,5.52,0,0,0,3.73,2.75,2.07,2.07,0,0,0,.35,0A4.56,4.56,0,0,0,110.21,42,4.15,4.15,0,0,0,111.66,38.38Z" transform="translate(-5.21 -4.1)"/><path class="cls-1" d="M118.71,46l-.22,1A2.83,2.83,0,0,1,117,49.11c-1.54.74-3.67-.29-3.69-.3l-1.25-.61,1.08.87a6.69,6.69,0,0,0,3.49,1.77,1.68,1.68,0,0,0,.93-.19c1.45-.77,1.23-3.52,1.22-3.64Z" transform="translate(-5.21 -4.1)"/><path class="cls-1" d="M103.23,53.49c-1,.53-2.52.38-4.39-.42l-.66-.29.48.53c.08.09,1.76,1.93,3.41,2a2.12,2.12,0,0,0,.66-.07c1-.29,1.74-1.41,2.11-3.34l-.31-.07A2.55,2.55,0,0,1,103.23,53.49Z" transform="translate(-5.21 -4.1)"/><path class="cls-1" d="M109.83,55.76a3.4,3.4,0,0,0,1.87.93,1.68,1.68,0,0,0,.44,0c.68-.15,1.2-.75,1.57-1.77l.09-.27-4.16,1Z" transform="translate(-5.21 -4.1)"/><path class="cls-1" d="M142.83,65.74a3.67,3.67,0,0,0-2,0h0l0,.13,0-.13a3,3,0,0,0-1.34.7c-.46-1-2.4-4.54-5.63-5.37a6.57,6.57,0,0,0-5.73,1.56,6.19,6.19,0,0,0-2.57,5.34c0,4.1,3.72,7.65,3.88,7.8l.92.87-.68-1.07c0-.05-3.37-5.31-2.27-9.22a5.11,5.11,0,0,1,2.85-3.25,4.55,4.55,0,0,1,4.1-.17c3.5,1.67,5,7.9,5,8l.31-.05s-.17-2.52,1.06-3.39a2.52,2.52,0,0,1,2.5.06,2.88,2.88,0,0,1,1.67,1.75c.4,1.16.39,3.43-1.92,7.6l-.57,1,.82-.86c.2-.21,5-5.3,2.84-8.91A5.63,5.63,0,0,0,142.83,65.74Z" transform="translate(-5.21 -4.1)"/><path class="cls-1" d="M118.36,4.1A46.93,46.93,0,1,0,165.29,51,46.92,46.92,0,0,0,118.36,4.1Zm17.25,80.47a9.33,9.33,0,0,0,3.23-3.78l0-.07a9.15,9.15,0,0,0,.76-2.87c.42-5.2-1.74-6.74-1.83-6.8l-.36-.25.12.42c1.46,5.09.66,9.18-2.33,11.8-3.92,3.45-11.31,3.86-18,1-7.09-3.05-11.37-8.3-12.72-15.61v-.08c-.38-2,1-3.35,5-4.9,3.6-1.38,11,3.53,11.08,3.58l.16.1.07-.17c.48-1.07-.91-3.93-2-5.08s-1.31-2.08-.84-3.12a3.18,3.18,0,0,1,.26-.44,2.09,2.09,0,0,1,.14-.17,2.55,2.55,0,0,1,3.41-.39l.09.07a3.72,3.72,0,0,1,.94.9,22.44,22.44,0,0,1,1.36,2.54l.31.68,0-.75c-.06-2.29-.42-3.35-1.44-4.2a5,5,0,0,0-5.23-.69,3.29,3.29,0,0,0-1.75,1.93,3.33,3.33,0,0,0-.06,2.4,31.57,31.57,0,0,0,2.21,3.15C110,59.33,105.7,63.08,104.21,65a2,2,0,0,1-2.36.36,27,27,0,0,1-11.47-8.38,14.58,14.58,0,0,1-3-12.13c2.07-8.3,6.68-12,9.24-13.47A13.28,13.28,0,0,1,106.81,30a20.2,20.2,0,0,1,11,8.22,18,18,0,0,0,1.28,1.62c1.48,1.52,1.3,3.95,1.19,5.41,0,.32,0,.6,0,.82,0,1.35,1.3,2.58,2.38,3.37.9.66.71,4.15.56,5.45l-.08.74.37-.65a6.59,6.59,0,0,0,1-4.64c0-.14,0-.27,0-.39,0-.61-.07-1.18-1.37-2s-1.18-1.9-1-3.52c0-.18,0-.37,0-.56.16-1.89-1.51-4.29-4.07-7.74a19,19,0,0,0-13.18-7.93A15,15,0,0,0,93,32.3a23.67,23.67,0,0,0-6.38,9.07,37.9,37.9,0,1,1,49,43.2Z" transform="translate(-5.21 -4.1)"/><path class="cls-1" d="M5.21,64.07a56.48,56.48,0,0,1,2.17-9.88l3.54-11.61q1.86-6.09,3.29-12.3a53.85,53.85,0,0,0,1.43-12A42.8,42.8,0,0,0,15,9.66,34.84,34.84,0,0,0,13.4,4.44a33.59,33.59,0,0,1,6,.5A10.18,10.18,0,0,1,24,7a10.39,10.39,0,0,1,3.05,4.35,20.39,20.39,0,0,1,1.11,7.39,32.33,32.33,0,0,1-1.24,8.69c-.83,3-1.8,6-2.92,9s-2.32,6-3.6,9a75.19,75.19,0,0,0-3.17,8.82H36.51V6.93L54.39,4.44V54.25h7.83v9.82H54.39V97.6H36.51V64.07Z" transform="translate(-5.21 -4.1)"/><path class="cls-1" d="M174.51,64.07a57.41,57.41,0,0,1,2.17-9.88l3.54-11.61c1.25-4.06,2.34-8.16,3.3-12.3a53.82,53.82,0,0,0,1.42-12,42.05,42.05,0,0,0-.62-8.57,34.82,34.82,0,0,0-1.61-5.22,33.47,33.47,0,0,1,6,.5A10.27,10.27,0,0,1,193.33,7a10.37,10.37,0,0,1,3,4.35,20.15,20.15,0,0,1,1.12,7.39,32.73,32.73,0,0,1-1.24,8.69c-.83,3-1.8,6-2.92,9s-2.32,6-3.6,9a73.42,73.42,0,0,0-3.17,8.82h19.25V6.93L223.7,4.44V54.25h7.82v9.82H223.7V97.6H205.81V64.07Z" transform="translate(-5.21 -4.1)"/></svg>